<?xml version="1.0" encoding="UTF-8" standalone="no"?>
<!DOCTYPE svg PUBLIC "-//W3C//DTD SVG 1.1//EN"
 "http://www.w3.org/Graphics/SVG/1.1/DTD/svg11.dtd">
<!-- Generated by graphviz version 2.26.3 (20100126.1600)
 -->
<!-- Title: c Pages: 1 -->
<svg width="1044pt" height="800pt"
 viewBox="0.00 0.00 1044.00 800.00" xmlns="http://www.w3.org/2000/svg" xmlns:xlink="http://www.w3.org/1999/xlink">
<g id="graph1" class="graph" transform="scale(1 1) rotate(0) translate(4 796)">
<title>c</title>
<polygon fill="white" stroke="white" points="-4,5 -4,-796 1041,-796 1041,5 -4,5"/>
<!-- View -->
<g id="node1" class="node"><title>View</title>
<ellipse fill="none" stroke="black" cx="829" cy="-396" rx="34.9399" ry="18"/>
<text text-anchor="middle" x="829" y="-391.9" font-family="Times Roman,serif" font-size="14.00">View</text>
</g>
<!-- Object -->
<g id="node3" class="node"><title>Object</title>
<ellipse fill="none" stroke="black" cx="993" cy="-558" rx="41.8891" ry="18"/>
<text text-anchor="middle" x="993" y="-553.9" font-family="Times Roman,serif" font-size="14.00">Object</text>
</g>
<!-- View&#45;&gt;Object -->
<g id="edge2" class="edge"><title>View&#45;&gt;Object</title>
<path fill="none" stroke="black" d="M863.192,-400.94C879.904,-404.739 899.488,-411.397 914,-423 949.253,-451.186 972.031,-499.68 983.672,-530.23"/>
<polygon fill="black" stroke="black" points="980.469,-531.661 987.195,-539.847 987.042,-529.253 980.469,-531.661"/>
</g>
<!-- ImageView -->
<g id="node4" class="node"><title>ImageView</title>
<ellipse fill="none" stroke="black" cx="608" cy="-774" rx="64.1231" ry="18"/>
<text text-anchor="middle" x="608" y="-769.9" font-family="Times Roman,serif" font-size="14.00">ImageView</text>
</g>
<!-- ImageView&#45;&gt;View -->
<g id="edge4" class="edge"><title>ImageView&#45;&gt;View</title>
<path fill="none" stroke="black" d="M670.229,-769.123C684.524,-765.069 698.342,-758.262 708,-747 802.318,-637.017 652.117,-535.024 744,-423 753.813,-411.036 768.918,-404.298 783.688,-400.529"/>
<polygon fill="black" stroke="black" points="784.745,-403.883 793.791,-398.367 783.28,-397.038 784.745,-403.883"/>
</g>
<!-- IconView -->
<g id="node6" class="node"><title>IconView</title>
<ellipse fill="none" stroke="black" cx="341" cy="-774" rx="55.0898" ry="18"/>
<text text-anchor="middle" x="341" y="-769.9" font-family="Times Roman,serif" font-size="14.00">IconView</text>
</g>
<!-- IconView&#45;&gt;ImageView -->
<g id="edge6" class="edge"><title>IconView&#45;&gt;ImageView</title>
<path fill="none" stroke="black" d="M396.647,-774C436.264,-774 489.941,-774 533.287,-774"/>
<polygon fill="black" stroke="black" points="533.5,-777.5 543.5,-774 533.5,-770.5 533.5,-777.5"/>
</g>
<!-- ObjectView -->
<g id="node8" class="node"><title>ObjectView</title>
<ellipse fill="none" stroke="black" cx="608" cy="-720" rx="66.0138" ry="18"/>
<text text-anchor="middle" x="608" y="-715.9" font-family="Times Roman,serif" font-size="14.00">ObjectView</text>
</g>
<!-- ObjectView&#45;&gt;View -->
<g id="edge8" class="edge"><title>ObjectView&#45;&gt;View</title>
<path fill="none" stroke="black" d="M671.099,-714.677C685.027,-710.594 698.457,-703.885 708,-693 787.81,-601.97 666.205,-515.758 744,-423 753.863,-411.24 768.832,-404.539 783.474,-400.743"/>
<polygon fill="black" stroke="black" points="784.47,-404.108 793.491,-398.552 782.975,-397.269 784.47,-404.108"/>
</g>
<!-- Widget -->
<g id="node10" class="node"><title>Widget</title>
<ellipse fill="none" stroke="black" cx="608" cy="-666" rx="45.8622" ry="18"/>
<text text-anchor="middle" x="608" y="-661.9" font-family="Times Roman,serif" font-size="14.00">Widget</text>
</g>
<!-- Widget&#45;&gt;View -->
<g id="edge10" class="edge"><title>Widget&#45;&gt;View</title>
<path fill="none" stroke="black" d="M653.977,-664.234C673.274,-661.085 694.356,-654.059 708,-639 773.345,-566.875 680.252,-496.541 744,-423 754.053,-411.403 769.065,-404.738 783.688,-400.926"/>
<polygon fill="black" stroke="black" points="784.675,-404.292 793.684,-398.716 783.164,-397.457 784.675,-404.292"/>
</g>
<!-- Label -->
<g id="node12" class="node"><title>Label</title>
<ellipse fill="none" stroke="black" cx="608" cy="-612" rx="36.8288" ry="18"/>
<text text-anchor="middle" x="608" y="-607.9" font-family="Times Roman,serif" font-size="14.00">Label</text>
</g>
<!-- Label&#45;&gt;View -->
<g id="edge12" class="edge"><title>Label&#45;&gt;View</title>
<path fill="none" stroke="black" d="M645.088,-611.097C666.311,-608.597 691.846,-601.899 708,-585 758.966,-531.685 694.215,-477.42 744,-423 754.275,-411.769 769.194,-405.182 783.675,-401.328"/>
<polygon fill="black" stroke="black" points="784.595,-404.708 793.567,-399.074 783.04,-397.883 784.595,-404.708"/>
</g>
<!-- TextWidget -->
<g id="node14" class="node"><title>TextWidget</title>
<ellipse fill="none" stroke="black" cx="341" cy="-693" rx="66.0138" ry="18"/>
<text text-anchor="middle" x="341" y="-688.9" font-family="Times Roman,serif" font-size="14.00">TextWidget</text>
</g>
<!-- TextWidget&#45;&gt;Widget -->
<g id="edge14" class="edge"><title>TextWidget&#45;&gt;Widget</title>
<path fill="none" stroke="black" d="M402.926,-686.738C448.279,-682.152 509.278,-675.983 552.936,-671.568"/>
<polygon fill="black" stroke="black" points="553.487,-675.03 563.084,-670.542 552.783,-668.066 553.487,-675.03"/>
</g>
<!-- RichTextWidget -->
<g id="node16" class="node"><title>RichTextWidget</title>
<ellipse fill="none" stroke="black" cx="87" cy="-720" rx="86.8603" ry="18"/>
<text text-anchor="middle" x="87" y="-715.9" font-family="Times Roman,serif" font-size="14.00">RichTextWidget</text>
</g>
<!-- RichTextWidget&#45;&gt;TextWidget -->
<g id="edge16" class="edge"><title>RichTextWidget&#45;&gt;TextWidget</title>
<path fill="none" stroke="black" d="M164.589,-711.752C197.763,-708.226 236.267,-704.133 268.822,-700.672"/>
<polygon fill="black" stroke="black" points="269.595,-704.11 279.169,-699.573 268.855,-697.149 269.595,-704.11"/>
</g>
<!-- NumericWidget -->
<g id="node18" class="node"><title>NumericWidget</title>
<ellipse fill="none" stroke="black" cx="87" cy="-666" rx="84.9707" ry="18"/>
<text text-anchor="middle" x="87" y="-661.9" font-family="Times Roman,serif" font-size="14.00">NumericWidget</text>
</g>
<!-- NumericWidget&#45;&gt;TextWidget -->
<g id="edge18" class="edge"><title>NumericWidget&#45;&gt;TextWidget</title>
<path fill="none" stroke="black" d="M163.553,-674.138C197.177,-677.712 236.434,-681.885 269.463,-685.396"/>
<polygon fill="black" stroke="black" points="269.186,-688.886 279.5,-686.463 269.926,-681.925 269.186,-688.886"/>
</g>
<!-- BooleanWidget -->
<g id="node20" class="node"><title>BooleanWidget</title>
<ellipse fill="none" stroke="black" cx="341" cy="-639" rx="84.7756" ry="18"/>
<text text-anchor="middle" x="341" y="-634.9" font-family="Times Roman,serif" font-size="14.00">BooleanWidget</text>
</g>
<!-- BooleanWidget&#45;&gt;Widget -->
<g id="edge20" class="edge"><title>BooleanWidget&#45;&gt;Widget</title>
<path fill="none" stroke="black" d="M417.869,-646.773C461.144,-651.149 514.163,-656.511 553.209,-660.459"/>
<polygon fill="black" stroke="black" points="553.024,-663.958 563.325,-661.482 553.728,-656.994 553.024,-663.958"/>
</g>
<!-- Screen -->
<g id="node22" class="node"><title>Screen</title>
<ellipse fill="none" stroke="black" cx="608" cy="-558" rx="43.9728" ry="18"/>
<text text-anchor="middle" x="608" y="-553.9" font-family="Times Roman,serif" font-size="14.00">Screen</text>
</g>
<!-- Screen&#45;&gt;View -->
<g id="edge22" class="edge"><title>Screen&#45;&gt;View</title>
<path fill="none" stroke="black" d="M652.155,-555.324C671.44,-552.023 693.024,-545.131 708,-531 744.8,-496.276 707.97,-458.522 744,-423 754.84,-412.313 769.89,-405.852 784.318,-401.948"/>
<polygon fill="black" stroke="black" points="785.216,-405.332 794.147,-399.633 783.611,-398.518 785.216,-405.332"/>
</g>
<!-- Window -->
<g id="node24" class="node"><title>Window</title>
<ellipse fill="none" stroke="black" cx="608" cy="-504" rx="50.9221" ry="18"/>
<text text-anchor="middle" x="608" y="-499.9" font-family="Times Roman,serif" font-size="14.00">Window</text>
</g>
<!-- Window&#45;&gt;View -->
<g id="edge24" class="edge"><title>Window&#45;&gt;View</title>
<path fill="none" stroke="black" d="M656.856,-498.066C674.206,-494.167 693.106,-487.706 708,-477 731.421,-460.164 720.954,-440.345 744,-423 755.846,-414.084 770.723,-408.06 784.706,-404.013"/>
<polygon fill="black" stroke="black" points="785.887,-407.322 794.674,-401.402 784.113,-400.55 785.887,-407.322"/>
</g>
<!-- Button -->
<g id="node26" class="node"><title>Button</title>
<ellipse fill="none" stroke="black" cx="608" cy="-450" rx="45.1673" ry="18"/>
<text text-anchor="middle" x="608" y="-445.9" font-family="Times Roman,serif" font-size="14.00">Button</text>
</g>
<!-- Button&#45;&gt;View -->
<g id="edge26" class="edge"><title>Button&#45;&gt;View</title>
<path fill="none" stroke="black" d="M646.495,-440.594C685.713,-431.011 746.365,-416.191 786.853,-406.298"/>
<polygon fill="black" stroke="black" points="787.804,-409.669 796.687,-403.895 786.142,-402.869 787.804,-409.669"/>
</g>
<!-- Toolbar -->
<g id="node28" class="node"><title>Toolbar</title>
<ellipse fill="none" stroke="black" cx="608" cy="-396" rx="45.8622" ry="18"/>
<text text-anchor="middle" x="608" y="-391.9" font-family="Times Roman,serif" font-size="14.00">Toolbar</text>
</g>
<!-- Toolbar&#45;&gt;View -->
<g id="edge28" class="edge"><title>Toolbar&#45;&gt;View</title>
<path fill="none" stroke="black" d="M654.06,-396C691.871,-396 745.156,-396 782.961,-396"/>
<polygon fill="black" stroke="black" points="783.188,-399.5 793.188,-396 783.188,-392.5 783.188,-399.5"/>
</g>
<!-- NavigationBar -->
<g id="node30" class="node"><title>NavigationBar</title>
<ellipse fill="none" stroke="black" cx="608" cy="-342" rx="79.9115" ry="18"/>
<text text-anchor="middle" x="608" y="-337.9" font-family="Times Roman,serif" font-size="14.00">NavigationBar</text>
</g>
<!-- NavigationBar&#45;&gt;View -->
<g id="edge30" class="edge"><title>NavigationBar&#45;&gt;View</title>
<path fill="none" stroke="black" d="M662.346,-355.279C700.732,-364.659 751.432,-377.047 786.789,-385.686"/>
<polygon fill="black" stroke="black" points="786.239,-389.155 796.784,-388.128 787.901,-382.355 786.239,-389.155"/>
</g>
<!-- NavigationItem -->
<g id="node32" class="node"><title>NavigationItem</title>
<ellipse fill="none" stroke="black" cx="829" cy="-720" rx="84.7756" ry="18"/>
<text text-anchor="middle" x="829" y="-715.9" font-family="Times Roman,serif" font-size="14.00">NavigationItem</text>
</g>
<!-- NavigationItem&#45;&gt;Object -->
<g id="edge32" class="edge"><title>NavigationItem&#45;&gt;Object</title>
<path fill="none" stroke="black" d="M888.981,-707.135C897.936,-703.518 906.623,-698.898 914,-693 949.253,-664.814 972.031,-616.32 983.672,-585.77"/>
<polygon fill="black" stroke="black" points="987.042,-586.747 987.195,-576.153 980.469,-584.339 987.042,-586.747"/>
</g>
<!-- ViewController -->
<g id="node34" class="node"><title>ViewController</title>
<ellipse fill="none" stroke="black" cx="608" cy="-288" rx="82.8866" ry="18"/>
<text text-anchor="middle" x="608" y="-283.9" font-family="Times Roman,serif" font-size="14.00">ViewController</text>
</g>
<!-- ViewController&#45;&gt;View -->
<g id="edge34" class="edge"><title>ViewController&#45;&gt;View</title>
<path fill="none" stroke="black" d="M667.551,-300.66C681.144,-304.48 695.314,-309.231 708,-315 742.636,-330.751 778.372,-355.981 801.94,-374.099"/>
<polygon fill="black" stroke="black" points="800.011,-377.032 810.049,-380.421 804.315,-371.512 800.011,-377.032"/>
</g>
<!-- NavigationController -->
<g id="node36" class="node"><title>NavigationController</title>
<ellipse fill="none" stroke="black" cx="341" cy="-558" rx="111.181" ry="18"/>
<text text-anchor="middle" x="341" y="-553.9" font-family="Times Roman,serif" font-size="14.00">NavigationController</text>
</g>
<!-- NavigationController&#45;&gt;ViewController -->
<g id="edge36" class="edge"><title>NavigationController&#45;&gt;ViewController</title>
<path fill="none" stroke="black" d="M442.028,-550.462C453.249,-545.979 463.626,-539.699 472,-531 539.495,-460.883 442.655,-387.125 508,-315 513.063,-309.411 519.152,-304.929 525.793,-301.34"/>
<polygon fill="black" stroke="black" points="527.562,-304.378 535.148,-296.981 524.605,-298.033 527.562,-304.378"/>
</g>
<!-- TabController -->
<g id="node38" class="node"><title>TabController</title>
<ellipse fill="none" stroke="black" cx="341" cy="-504" rx="75.2406" ry="18"/>
<text text-anchor="middle" x="341" y="-499.9" font-family="Times Roman,serif" font-size="14.00">TabController</text>
</g>
<!-- TabController&#45;&gt;ViewController -->
<g id="edge38" class="edge"><title>TabController&#45;&gt;ViewController</title>
<path fill="none" stroke="black" d="M416.709,-503.033C436.954,-499.182 457.274,-491.501 472,-477 524.554,-425.25 457.034,-368.315 508,-315 513.417,-309.333 519.889,-304.814 526.899,-301.215"/>
<polygon fill="black" stroke="black" points="528.329,-304.409 536.028,-297.131 525.471,-298.019 528.329,-304.409"/>
</g>
<!-- SplitViewController -->
<g id="node40" class="node"><title>SplitViewController</title>
<ellipse fill="none" stroke="black" cx="341" cy="-450" rx="104.927" ry="18"/>
<text text-anchor="middle" x="341" y="-445.9" font-family="Times Roman,serif" font-size="14.00">SplitViewController</text>
</g>
<!-- SplitViewController&#45;&gt;ViewController -->
<g id="edge40" class="edge"><title>SplitViewController&#45;&gt;ViewController</title>
<path fill="none" stroke="black" d="M436.801,-442.579C449.698,-438.219 461.929,-431.943 472,-423 509.833,-389.404 471.2,-349.724 508,-315 513.794,-309.533 520.577,-305.15 527.833,-301.639"/>
<polygon fill="black" stroke="black" points="529.403,-304.774 537.238,-297.642 526.666,-298.332 529.403,-304.774"/>
</g>
<!-- Application -->
<g id="node42" class="node"><title>Application</title>
<ellipse fill="none" stroke="black" cx="341" cy="-396" rx="63.9292" ry="18"/>
<text text-anchor="middle" x="341" y="-391.9" font-family="Times Roman,serif" font-size="14.00">Application</text>
</g>
<!-- Application&#45;&gt;ViewController -->
<g id="edge42" class="edge"><title>Application&#45;&gt;ViewController</title>
<path fill="none" stroke="black" d="M404.192,-392.919C427.086,-389.349 452.166,-382.367 472,-369 495.919,-352.88 484.579,-331.836 508,-315 515.161,-309.852 523.249,-305.686 531.645,-302.314"/>
<polygon fill="black" stroke="black" points="533.018,-305.539 541.222,-298.835 530.628,-298.96 533.018,-305.539"/>
</g>
<!-- ActivityIndicator -->
<g id="node44" class="node"><title>ActivityIndicator</title>
<ellipse fill="none" stroke="black" cx="608" cy="-234" rx="89.8356" ry="18"/>
<text text-anchor="middle" x="608" y="-229.9" font-family="Times Roman,serif" font-size="14.00">ActivityIndicator</text>
</g>
<!-- ActivityIndicator&#45;&gt;View -->
<g id="edge44" class="edge"><title>ActivityIndicator&#45;&gt;View</title>
<path fill="none" stroke="black" d="M674.785,-246.259C686.351,-249.969 697.893,-254.777 708,-261 753.616,-289.085 792.061,-339.498 812.707,-370.135"/>
<polygon fill="black" stroke="black" points="809.859,-372.174 818.291,-378.59 815.7,-368.316 809.859,-372.174"/>
</g>
<!-- ScrollView -->
<g id="node46" class="node"><title>ScrollView</title>
<ellipse fill="none" stroke="black" cx="608" cy="-180" rx="61.8445" ry="18"/>
<text text-anchor="middle" x="608" y="-175.9" font-family="Times Roman,serif" font-size="14.00">ScrollView</text>
</g>
<!-- ScrollView&#45;&gt;View -->
<g id="edge46" class="edge"><title>ScrollView&#45;&gt;View</title>
<path fill="none" stroke="black" d="M664.444,-187.603C679.611,-191.6 695.309,-197.698 708,-207 765.334,-249.025 802.406,-327.152 818.975,-368.572"/>
<polygon fill="black" stroke="black" points="815.766,-369.979 822.655,-378.029 822.29,-367.44 815.766,-369.979"/>
</g>
<!-- CoverView -->
<g id="node48" class="node"><title>CoverView</title>
<ellipse fill="none" stroke="black" cx="341" cy="-180" rx="63.9292" ry="18"/>
<text text-anchor="middle" x="341" y="-175.9" font-family="Times Roman,serif" font-size="14.00">CoverView</text>
</g>
<!-- CoverView&#45;&gt;ScrollView -->
<g id="edge48" class="edge"><title>CoverView&#45;&gt;ScrollView</title>
<path fill="none" stroke="black" d="M405.293,-180C444.554,-180 494.854,-180 535.525,-180"/>
<polygon fill="black" stroke="black" points="535.645,-183.5 545.645,-180 535.645,-176.5 535.645,-183.5"/>
</g>
<!-- TableView -->
<g id="node50" class="node"><title>TableView</title>
<ellipse fill="none" stroke="black" cx="341" cy="-126" rx="59.7599" ry="18"/>
<text text-anchor="middle" x="341" y="-121.9" font-family="Times Roman,serif" font-size="14.00">TableView</text>
</g>
<!-- TableView&#45;&gt;ScrollView -->
<g id="edge50" class="edge"><title>TableView&#45;&gt;ScrollView</title>
<path fill="none" stroke="black" d="M390.907,-136.094C435.154,-145.042 499.901,-158.137 547.168,-167.697"/>
<polygon fill="black" stroke="black" points="546.479,-171.128 556.975,-169.68 547.867,-164.267 546.479,-171.128"/>
</g>
<!-- TableViewController -->
<g id="node52" class="node"><title>TableViewController</title>
<ellipse fill="none" stroke="black" cx="341" cy="-342" rx="107.206" ry="18"/>
<text text-anchor="middle" x="341" y="-337.9" font-family="Times Roman,serif" font-size="14.00">TableViewController</text>
</g>
<!-- TableViewController&#45;&gt;ViewController -->
<g id="edge52" class="edge"><title>TableViewController&#45;&gt;ViewController</title>
<path fill="none" stroke="black" d="M409.759,-328.094C448.788,-320.2 497.557,-310.337 536.957,-302.368"/>
<polygon fill="black" stroke="black" points="537.653,-305.798 546.761,-300.386 536.265,-298.937 537.653,-305.798"/>
</g>
<!-- IndexPath -->
<g id="node54" class="node"><title>IndexPath</title>
<ellipse fill="none" stroke="black" cx="829" cy="-666" rx="59.7599" ry="18"/>
<text text-anchor="middle" x="829" y="-661.9" font-family="Times Roman,serif" font-size="14.00">IndexPath</text>
</g>
<!-- IndexPath&#45;&gt;Object -->
<g id="edge54" class="edge"><title>IndexPath&#45;&gt;Object</title>
<path fill="none" stroke="black" d="M877.117,-655.202C889.665,-651.208 902.799,-645.91 914,-639 937.562,-624.465 959.125,-601.384 973.748,-583.572"/>
<polygon fill="black" stroke="black" points="976.84,-585.309 980.348,-575.311 971.371,-580.939 976.84,-585.309"/>
</g>
<!-- CollectionView -->
<g id="node56" class="node"><title>CollectionView</title>
<ellipse fill="none" stroke="black" cx="341" cy="-72" rx="82.1898" ry="18"/>
<text text-anchor="middle" x="341" y="-67.9" font-family="Times Roman,serif" font-size="14.00">CollectionView</text>
</g>
<!-- CollectionView&#45;&gt;ScrollView -->
<g id="edge56" class="edge"><title>CollectionView&#45;&gt;ScrollView</title>
<path fill="none" stroke="black" d="M419.089,-77.8647C437.561,-81.9252 456.403,-88.4881 472,-99 495.919,-115.12 484.579,-136.164 508,-153 518.139,-160.288 530.135,-165.609 542.235,-169.494"/>
<polygon fill="black" stroke="black" points="541.347,-172.881 551.927,-172.312 543.302,-166.159 541.347,-172.881"/>
</g>
<!-- ListView -->
<g id="node58" class="node"><title>ListView</title>
<ellipse fill="none" stroke="black" cx="341" cy="-18" rx="52.8111" ry="18"/>
<text text-anchor="middle" x="341" y="-13.9" font-family="Times Roman,serif" font-size="14.00">ListView</text>
</g>
<!-- ListView&#45;&gt;ScrollView -->
<g id="edge58" class="edge"><title>ListView&#45;&gt;ScrollView</title>
<path fill="none" stroke="black" d="M394.015,-17.0139C420.324,-19.233 450.904,-26.2662 472,-45 509.833,-78.5959 471.2,-118.276 508,-153 516.788,-161.292 527.851,-167.091 539.39,-171.135"/>
<polygon fill="black" stroke="black" points="538.568,-174.544 549.155,-174.135 540.623,-167.853 538.568,-174.544"/>
</g>
<!-- ListViewCell -->
<g id="node60" class="node"><title>ListViewCell</title>
<ellipse fill="none" stroke="black" cx="608" cy="-126" rx="70.1831" ry="18"/>
<text text-anchor="middle" x="608" y="-121.9" font-family="Times Roman,serif" font-size="14.00">ListViewCell</text>
</g>
<!-- ListViewCell&#45;&gt;View -->
<g id="edge60" class="edge"><title>ListViewCell&#45;&gt;View</title>
<path fill="none" stroke="black" d="M670.329,-134.195C683.8,-138.211 697.218,-144.169 708,-153 777.609,-210.014 810.691,-317.142 823.012,-367.925"/>
<polygon fill="black" stroke="black" points="819.651,-368.925 825.332,-377.868 826.468,-367.335 819.651,-368.925"/>
</g>
<!-- CollectionViewCell -->
<g id="node62" class="node"><title>CollectionViewCell</title>
<ellipse fill="none" stroke="black" cx="608" cy="-72" rx="100.063" ry="18"/>
<text text-anchor="middle" x="608" y="-67.9" font-family="Times Roman,serif" font-size="14.00">CollectionViewCell</text>
</g>
<!-- CollectionViewCell&#45;&gt;View -->
<g id="edge62" class="edge"><title>CollectionViewCell&#45;&gt;View</title>
<path fill="none" stroke="black" d="M683.192,-83.9955C692.228,-87.7411 700.791,-92.6286 708,-99 790.279,-171.721 817.598,-308.671 825.805,-367.722"/>
<polygon fill="black" stroke="black" points="822.357,-368.347 827.125,-377.809 829.298,-367.439 822.357,-368.347"/>
</g>
<!-- ListViewController -->
<g id="node64" class="node"><title>ListViewController</title>
<ellipse fill="none" stroke="black" cx="341" cy="-288" rx="100.758" ry="18"/>
<text text-anchor="middle" x="341" y="-283.9" font-family="Times Roman,serif" font-size="14.00">ListViewController</text>
</g>
<!-- ListViewController&#45;&gt;ViewController -->
<g id="edge64" class="edge"><title>ListViewController&#45;&gt;ViewController</title>
<path fill="none" stroke="black" d="M442.322,-288C465.839,-288 490.772,-288 513.96,-288"/>
<polygon fill="black" stroke="black" points="514.13,-291.5 524.13,-288 514.13,-284.5 514.13,-291.5"/>
</g>
<!-- CollectionViewController -->
<g id="node66" class="node"><title>CollectionViewController</title>
<ellipse fill="none" stroke="black" cx="341" cy="-234" rx="130.137" ry="18"/>
<text text-anchor="middle" x="341" y="-229.9" font-family="Times Roman,serif" font-size="14.00">CollectionViewController</text>
</g>
<!-- CollectionViewController&#45;&gt;ViewController -->
<g id="edge66" class="edge"><title>CollectionViewController&#45;&gt;ViewController</title>
<path fill="none" stroke="black" d="M414.666,-248.899C452.781,-256.607 499.102,-265.976 536.847,-273.61"/>
<polygon fill="black" stroke="black" points="536.253,-277.06 546.749,-275.612 537.641,-270.199 536.253,-277.06"/>
</g>
<!-- WebView -->
<g id="node68" class="node"><title>WebView</title>
<ellipse fill="none" stroke="black" cx="608" cy="-18" rx="56.9803" ry="18"/>
<text text-anchor="middle" x="608" y="-13.9" font-family="Times Roman,serif" font-size="14.00">WebView</text>
</g>
<!-- WebView&#45;&gt;View -->
<g id="edge68" class="edge"><title>WebView&#45;&gt;View</title>
<path fill="none" stroke="black" d="M662.872,-22.9531C679.06,-26.8284 695.712,-33.5234 708,-45 803.269,-133.978 823.529,-301.432 827.837,-367.837"/>
<polygon fill="black" stroke="black" points="824.35,-368.174 828.418,-377.957 831.339,-367.772 824.35,-368.174"/>
</g>
<!-- FormDef -->
<g id="node70" class="node"><title>FormDef</title>
<ellipse fill="none" stroke="black" cx="829" cy="-612" rx="52.1162" ry="18"/>
<text text-anchor="middle" x="829" y="-607.9" font-family="Times Roman,serif" font-size="14.00">FormDef</text>
</g>
<!-- FormDef&#45;&gt;Object -->
<g id="edge70" class="edge"><title>FormDef&#45;&gt;Object</title>
<path fill="none" stroke="black" d="M867.988,-599.811C882.46,-595.235 899.001,-589.945 914,-585 925.83,-581.1 938.62,-576.776 950.392,-572.752"/>
<polygon fill="black" stroke="black" points="951.674,-576.012 959.998,-569.458 949.403,-569.391 951.674,-576.012"/>
</g>
<!-- ClassDef -->
<g id="node72" class="node"><title>ClassDef</title>
<ellipse fill="none" stroke="black" cx="829" cy="-558" rx="52.8111" ry="18"/>
<text text-anchor="middle" x="829" y="-553.9" font-family="Times Roman,serif" font-size="14.00">ClassDef</text>
</g>
<!-- ClassDef&#45;&gt;Object -->
<g id="edge72" class="edge"><title>ClassDef&#45;&gt;Object</title>
<path fill="none" stroke="black" d="M882.246,-558C900.87,-558 921.76,-558 940.336,-558"/>
<polygon fill="black" stroke="black" points="940.389,-561.5 950.389,-558 940.389,-554.5 940.389,-561.5"/>
</g>
<!-- ResultSet -->
<g id="node74" class="node"><title>ResultSet</title>
<ellipse fill="none" stroke="black" cx="829" cy="-504" rx="57.1737" ry="18"/>
<text text-anchor="middle" x="829" y="-499.9" font-family="Times Roman,serif" font-size="14.00">ResultSet</text>
</g>
<!-- ResultSet&#45;&gt;Object -->
<g id="edge74" class="edge"><title>ResultSet&#45;&gt;Object</title>
<path fill="none" stroke="black" d="M869.7,-516.73C883.755,-521.179 899.589,-526.249 914,-531 925.83,-534.9 938.62,-539.224 950.392,-543.248"/>
<polygon fill="black" stroke="black" points="949.403,-546.609 959.998,-546.542 951.674,-539.988 949.403,-546.609"/>
</g>
<!-- ResultSkin -->
<g id="node76" class="node"><title>ResultSkin</title>
<ellipse fill="none" stroke="black" cx="829" cy="-450" rx="61.8445" ry="18"/>
<text text-anchor="middle" x="829" y="-445.9" font-family="Times Roman,serif" font-size="14.00">ResultSkin</text>
</g>
<!-- ResultSkin&#45;&gt;Object -->
<g id="edge76" class="edge"><title>ResultSkin&#45;&gt;Object</title>
<path fill="none" stroke="black" d="M878.004,-461.082C890.282,-465.043 903.062,-470.253 914,-477 937.562,-491.535 959.125,-514.616 973.748,-532.428"/>
<polygon fill="black" stroke="black" points="971.371,-535.061 980.348,-540.689 976.84,-530.691 971.371,-535.061"/>
</g>
</g>
</svg>
